<svg id="_x3C_Layer_x3E_" height="512" viewBox="0 0 32 32" width="512" xmlns="http://www.w3.org/2000/svg"><g id="meeting_x2C__negotiations_x2C__management_x2C__team_x2C__meeting_room"><path id="XMLID_6416_" d="m16 10c-1.654 0-3-1.346-3-3s1.346-3 3-3 3 1.346 3 3-1.346 3-3 3zm0-5c-1.104 0-2 .897-2 2 0 1.104.896 2 2 2s2-.896 2-2c0-1.103-.896-2-2-2z" fill="rgb(0,0,0)"/><g id="XMLID_6395_"><g id="XMLID_6406_"><g id="person_x2C__on_the_right_x2C__right_8_"><g id="XMLID_6412_"><g id="XMLID_6413_"><g id="XMLID_6414_"><g><path d="m28 11c-1.654 0-3-1.346-3-3s1.346-3 3-3 3 1.346 3 3-1.346 3-3 3zm0-5c-1.103 0-2 .897-2 2s.897 2 2 2 2-.897 2-2-.897-2-2-2z" fill="rgb(0,0,0)"/></g></g></g></g></g><g><path d="m20 14.5v2h1v-2c0-1.618-1.311-3.5-3-3.5h-4c-1.689 0-3 1.882-3 3.5 0 .276.224.5.5.5s.5-.224.5-.5c0-1.125.923-2.5 2-2.5h4c1.077 0 2 1.375 2 2.5z" fill="rgb(0,0,0)"/></g><path d="m17.746 31c-.037 0-.075-.004-.112-.013-.27-.062-.438-.33-.376-.599l1.8-7.864c.225-.901 1.023-1.524 1.942-1.524h4v-1.5c0-.276.224-.5.5-.5s.5.224.5.5v2c0 .276-.224.5-.5.5h-4.5c-.459 0-.858.312-.97.757l-1.797 7.854c-.053.232-.259.389-.487.389z" fill="rgb(0,0,0)"/><path d="m19.65 31c-.065 0-.13-.013-.194-.039-.254-.107-.374-.4-.267-.654l2.521-6c.079-.186.26-.307.461-.307h5.329c1.378 0 2.5-1.121 2.5-2.5v-7c0-.827-.673-1.5-1.5-1.5-1.026 0-1.983.477-2.626 1.309l-2.92 2.567c-.092.08-.209.124-.33.124h-3.124c-.276 0-.5.225-.5.5s.224.5.5.5h3.5c.121 0 .238-.044.33-.124.208-.182.523-.162.706.049.182.208.16.523-.048.705-.275.238-.625.37-.988.37h-3.5c-.827 0-1.5-.673-1.5-1.5s.673-1.5 1.5-1.5h2.936l2.713-2.373c.768-1.009 2.013-1.627 3.351-1.627 1.378 0 2.5 1.121 2.5 2.5v7c0 1.93-1.57 3.5-3.5 3.5h-4.997l-2.393 5.693c-.08.192-.265.307-.46.307z" fill="rgb(0,0,0)"/><g id="XMLID_6407_"><path d="m23 19h-3.5c-.827 0-1.5-.673-1.5-1.5s.673-1.5 1.5-1.5h3.124c.276 0 .5.224.5.5s-.224.5-.5.5h-3.124c-.276 0-.5.225-.5.5s.224.5.5.5h3.5c.121 0 .238-.044.33-.124l3.878-2.782c.225-.161.537-.109.698.115s.109.536-.115.697l-3.842 2.753c-.236.209-.586.341-.949.341z" fill="rgb(0,0,0)"/></g></g><g id="XMLID_6396_"><g id="person_x2C__on_the_right_x2C__right_7_"><g id="XMLID_6402_"><g id="XMLID_6403_"><g id="XMLID_6404_"><g><path d="m4 11c-1.654 0-3-1.346-3-3s1.346-3 3-3 3 1.346 3 3-1.345 3-3 3zm0-5c-1.103 0-2 .897-2 2s.897 2 2 2 2-.897 2-2-.896-2-2-2z" fill="rgb(0,0,0)"/></g></g></g></g></g><path d="m14.254 31c-.228 0-.434-.157-.487-.389l-1.8-7.864c-.109-.435-.508-.747-.967-.747h-4.5c-.276 0-.5-.224-.5-.5v-2c0-.276.224-.5.5-.5s.5.224.5.5v1.5h4c.919 0 1.717.623 1.94 1.515l1.802 7.874c.062.269-.106.537-.376.599-.037.008-.074.012-.112.012z" fill="rgb(0,0,0)"/><path d="m12.35 31c-.195 0-.38-.115-.461-.307l-2.392-5.693h-4.997c-1.93 0-3.5-1.57-3.5-3.5v-7c0-1.379 1.122-2.5 2.5-2.5 1.338 0 2.583.618 3.417 1.697l2.646 2.303h2.937c.827 0 1.5.673 1.5 1.5s-.673 1.5-1.5 1.5h-3.5c-.363 0-.713-.132-.987-.37-.208-.182-.23-.497-.048-.705.183-.21.498-.229.706-.049.091.08.208.124.329.124h3.5c.276 0 .5-.225.5-.5s-.224-.5-.5-.5h-3.124c-.121 0-.238-.044-.329-.124l-2.854-2.497c-.71-.902-1.667-1.379-2.693-1.379-.827 0-1.5.673-1.5 1.5v7c0 1.379 1.122 2.5 2.5 2.5h5.329c.201 0 .383.121.461.307l2.521 6c.107.254-.013.547-.267.654-.064.026-.129.039-.194.039z" fill="rgb(0,0,0)"/><g id="XMLID_6397_"><path d="m12.5 19h-3.5c-.363 0-.713-.132-.987-.37l-3.804-2.724c-.224-.161-.276-.473-.115-.697.161-.225.473-.276.698-.115l3.841 2.753c.129.109.246.153.367.153h3.5c.276 0 .5-.225.5-.5s-.224-.5-.5-.5h-3.124c-.276 0-.5-.224-.5-.5s.224-.5.5-.5h3.124c.827 0 1.5.673 1.5 1.5s-.673 1.5-1.5 1.5z" fill="rgb(0,0,0)"/></g></g></g><g><path d="m10.5 18h11v1h-11z" fill="rgb(0,0,0)"/></g></g></svg>